<svg width="256" height="256" viewBox="0 0 256 256" fill="none" xmlns="http://www.w3.org/2000/svg">
<g clip-path="url(#clip0_1334_2)">
<ellipse cx="128" cy="126" rx="128" ry="126" fill="#D9D9D9"/>
<path d="M118.926 137.647H145.985L159.588 155.147L172.971 170.735L198.191 202.353H168.485L151.132 181.029L142.235 168.382L118.926 137.647ZM200.471 114.706C200.471 131.127 197.358 145.098 191.132 156.618C184.956 168.137 176.525 176.936 165.838 183.015C155.201 189.044 143.24 192.059 129.956 192.059C116.574 192.059 104.564 189.02 93.9265 182.941C83.2892 176.863 74.8824 168.064 68.7059 156.544C62.5294 145.025 59.4412 131.078 59.4412 114.706C59.4412 98.2843 62.5294 84.3137 68.7059 72.7941C74.8824 61.2745 83.2892 52.5 93.9265 46.4706C104.564 40.3922 116.574 37.3529 129.956 37.3529C143.24 37.3529 155.201 40.3922 165.838 46.4706C176.525 52.5 184.956 61.2745 191.132 72.7941C197.358 84.3137 200.471 98.2843 200.471 114.706ZM168.191 114.706C168.191 104.069 166.598 95.098 163.412 87.7941C160.275 80.4902 155.838 74.951 150.103 71.1765C144.368 67.402 137.652 65.5147 129.956 65.5147C122.26 65.5147 115.544 67.402 109.809 71.1765C104.074 74.951 99.6127 80.4902 96.4265 87.7941C93.2892 95.098 91.7206 104.069 91.7206 114.706C91.7206 125.343 93.2892 134.314 96.4265 141.618C99.6127 148.922 104.074 154.461 109.809 158.235C115.544 162.01 122.26 163.897 129.956 163.897C137.652 163.897 144.368 162.01 150.103 158.235C155.838 154.461 160.275 148.922 163.412 141.618C166.598 134.314 168.191 125.343 168.191 114.706Z" fill="#D6961A"/>
<path d="M131.545 148.364C124.364 148.364 118.182 146.909 113 144C107.848 141.061 103.879 136.909 101.091 131.545C98.303 126.152 96.9091 119.773 96.9091 112.409C96.9091 105.227 98.303 98.9242 101.091 93.5C103.879 88.0758 107.803 83.8485 112.864 80.8182C117.955 77.7879 123.924 76.2727 130.773 76.2727C135.379 76.2727 139.667 77.0152 143.636 78.5C147.636 79.9545 151.121 82.1515 154.091 85.0909C157.091 88.0303 159.424 91.7273 161.091 96.1818C162.758 100.606 163.591 105.788 163.591 111.727V117.045H104.636V105.045H145.364C145.364 102.258 144.758 99.7879 143.545 97.6364C142.333 95.4848 140.652 93.803 138.5 92.5909C136.379 91.3485 133.909 90.7273 131.091 90.7273C128.152 90.7273 125.545 91.4091 123.273 92.7727C121.03 94.1061 119.273 95.9091 118 98.1818C116.727 100.424 116.076 102.924 116.045 105.682V117.091C116.045 120.545 116.682 123.53 117.955 126.045C119.258 128.561 121.091 130.5 123.455 131.864C125.818 133.227 128.621 133.909 131.864 133.909C134.015 133.909 135.985 133.606 137.773 133C139.561 132.394 141.091 131.485 142.364 130.273C143.636 129.061 144.606 127.576 145.273 125.818L163.182 127C162.273 131.303 160.409 135.061 157.591 138.273C154.803 141.455 151.197 143.939 146.773 145.727C142.379 147.485 137.303 148.364 131.545 148.364Z" fill="#9747FF"/>
<path d="M65.5969 215.165C64.7908 215.165 64.0966 214.993 63.5142 214.648C62.9354 214.3 62.4879 213.812 62.1719 213.184C61.8594 212.551 61.7031 211.811 61.7031 210.962C61.7031 210.124 61.8594 209.386 62.1719 208.746C62.4879 208.107 62.9283 207.608 63.4929 207.25C64.0611 206.891 64.7251 206.712 65.4851 206.712C65.9467 206.712 66.3942 206.788 66.8274 206.941C67.2607 207.093 67.6495 207.333 67.994 207.66C68.3384 207.987 68.6101 208.411 68.8089 208.933C69.0078 209.451 69.1072 210.082 69.1072 210.824V211.388H62.6033V210.195H67.5465C67.5465 209.776 67.4613 209.405 67.2908 209.082C67.1204 208.755 66.8807 208.498 66.5717 208.31C66.2663 208.121 65.9077 208.027 65.4957 208.027C65.0483 208.027 64.6577 208.137 64.3239 208.358C63.9936 208.574 63.7379 208.858 63.5568 209.21C63.3793 209.558 63.2905 209.936 63.2905 210.344V211.277C63.2905 211.824 63.3864 212.289 63.5781 212.672C63.7734 213.056 64.0451 213.349 64.3931 213.551C64.7411 213.75 65.1477 213.849 65.6129 213.849C65.9148 213.849 66.19 213.807 66.4386 213.722C66.6871 213.633 66.902 213.501 67.0831 213.327C67.2642 213.153 67.4027 212.939 67.4986 212.683L69.006 212.955C68.8853 213.398 68.6687 213.787 68.3562 214.121C68.0472 214.451 67.6584 214.709 67.1896 214.893C66.7244 215.075 66.1935 215.165 65.5969 215.165ZM73.2171 210.142V215H71.6244V206.818H73.1531V208.15H73.2544C73.4426 207.717 73.7373 207.369 74.1386 207.106C74.5434 206.843 75.053 206.712 75.6673 206.712C76.2249 206.712 76.7132 206.829 77.1322 207.063C77.5512 207.294 77.8762 207.638 78.107 208.097C78.3378 208.555 78.4532 209.121 78.4532 209.796V215H76.8605V209.988C76.8605 209.395 76.7061 208.931 76.3971 208.597C76.0882 208.26 75.6638 208.091 75.124 208.091C74.7547 208.091 74.4262 208.171 74.1386 208.331C73.8545 208.491 73.629 208.725 73.4621 209.034C73.2987 209.339 73.2171 209.709 73.2171 210.142ZM85.1585 206.818V208.097H80.6894V206.818H85.1585ZM81.8879 204.858H83.4806V212.598C83.4806 212.907 83.5267 213.139 83.6191 213.295C83.7114 213.448 83.8303 213.553 83.9759 213.61C84.1251 213.663 84.2867 213.69 84.4607 213.69C84.5885 213.69 84.7004 213.681 84.7963 213.663C84.8921 213.645 84.9667 213.631 85.02 213.62L85.3076 214.936C85.2153 214.972 85.0839 215.007 84.9134 215.043C84.743 215.082 84.5299 215.103 84.2742 215.107C83.8552 215.114 83.4646 215.039 83.1024 214.883C82.7401 214.727 82.4472 214.485 82.2235 214.158C81.9997 213.832 81.8879 213.422 81.8879 212.928V204.858ZM87.6703 215V206.818H89.2097V208.118H89.2949C89.4441 207.678 89.7069 207.331 90.0833 207.079C90.4632 206.824 90.8929 206.696 91.3723 206.696C91.4718 206.696 91.589 206.699 91.7239 206.706C91.8624 206.713 91.9707 206.722 92.0488 206.733V208.256C91.9849 208.239 91.8713 208.219 91.7079 208.198C91.5446 208.173 91.3812 208.161 91.2179 208.161C90.8414 208.161 90.5059 208.24 90.2111 208.4C89.9199 208.556 89.6891 208.775 89.5186 209.055C89.3482 209.332 89.263 209.648 89.263 210.004V215H87.6703ZM96.4849 215.181C95.9664 215.181 95.4977 215.085 95.0787 214.893C94.6596 214.698 94.3276 214.416 94.0826 214.047C93.8411 213.677 93.7203 213.224 93.7203 212.688C93.7203 212.227 93.8091 211.847 93.9867 211.548C94.1642 211.25 94.4039 211.014 94.7058 210.84C95.0076 210.666 95.345 210.534 95.7179 210.446C96.0907 210.357 96.4707 210.289 96.8578 210.243C97.3478 210.186 97.7456 210.14 98.051 210.105C98.3564 210.066 98.5783 210.004 98.7168 209.918C98.8553 209.833 98.9245 209.695 98.9245 209.503V209.466C98.9245 209 98.7931 208.64 98.5304 208.384C98.2711 208.129 97.8841 208.001 97.3691 208.001C96.8329 208.001 96.4103 208.12 96.1014 208.358C95.796 208.592 95.5847 208.853 95.4675 209.141L93.9707 208.8C94.1483 208.303 94.4075 207.901 94.7484 207.596C95.0929 207.287 95.4888 207.063 95.9363 206.925C96.3837 206.783 96.8542 206.712 97.3478 206.712C97.6745 206.712 98.0208 206.751 98.3865 206.829C98.7559 206.903 99.1003 207.042 99.4199 207.244C99.7431 207.447 100.008 207.736 100.214 208.113C100.42 208.485 100.523 208.97 100.523 209.567V215H98.9672V213.881H98.9032C98.8002 214.087 98.6458 214.29 98.4398 214.489C98.2338 214.687 97.9693 214.853 97.6461 214.984C97.323 215.115 96.9359 215.181 96.4849 215.181ZM96.8311 213.903C97.2715 213.903 97.6479 213.816 97.9604 213.642C98.2765 213.468 98.5162 213.24 98.6795 212.96C98.8464 212.676 98.9299 212.372 98.9299 212.049V210.994C98.873 211.051 98.763 211.104 98.5996 211.154C98.4398 211.2 98.2569 211.241 98.051 211.277C97.845 211.309 97.6444 211.339 97.449 211.367C97.2537 211.392 97.0904 211.413 96.959 211.431C96.65 211.47 96.3677 211.536 96.112 211.628C95.8599 211.721 95.6575 211.854 95.5048 212.028C95.3556 212.198 95.2811 212.425 95.2811 212.71C95.2811 213.104 95.4267 213.402 95.7179 213.604C96.0091 213.803 96.3801 213.903 96.8311 213.903ZM104.987 210.142V215H103.394V206.818H104.923V208.15H105.024C105.212 207.717 105.507 207.369 105.908 207.106C106.313 206.843 106.823 206.712 107.437 206.712C107.994 206.712 108.483 206.829 108.902 207.063C109.321 207.294 109.646 207.638 109.877 208.097C110.107 208.555 110.223 209.121 110.223 209.796V215H108.63V209.988C108.63 209.395 108.476 208.931 108.167 208.597C107.858 208.26 107.433 208.091 106.894 208.091C106.524 208.091 106.196 208.171 105.908 208.331C105.624 208.491 105.399 208.725 105.232 209.034C105.068 209.339 104.987 209.709 104.987 210.142ZM116.555 215.165C115.763 215.165 115.081 214.986 114.51 214.627C113.941 214.265 113.505 213.766 113.199 213.13C112.894 212.495 112.741 211.767 112.741 210.946C112.741 210.115 112.897 209.382 113.21 208.746C113.522 208.107 113.963 207.608 114.531 207.25C115.099 206.891 115.769 206.712 116.539 206.712C117.161 206.712 117.715 206.827 118.201 207.058C118.688 207.285 119.08 207.605 119.378 208.017C119.68 208.429 119.859 208.91 119.916 209.46H118.366C118.281 209.077 118.086 208.746 117.78 208.469C117.478 208.192 117.074 208.054 116.566 208.054C116.122 208.054 115.733 208.171 115.399 208.406C115.069 208.636 114.812 208.967 114.627 209.396C114.442 209.822 114.35 210.327 114.35 210.909C114.35 211.506 114.44 212.021 114.622 212.454C114.803 212.887 115.058 213.223 115.389 213.461C115.722 213.699 116.115 213.817 116.566 213.817C116.868 213.817 117.141 213.762 117.386 213.652C117.635 213.539 117.842 213.377 118.009 213.168C118.18 212.958 118.299 212.706 118.366 212.411H119.916C119.859 212.94 119.687 213.413 119.4 213.828C119.112 214.244 118.727 214.57 118.244 214.808C117.764 215.046 117.201 215.165 116.555 215.165ZM125.896 215.165C125.09 215.165 124.395 214.993 123.813 214.648C123.234 214.3 122.787 213.812 122.471 213.184C122.158 212.551 122.002 211.811 122.002 210.962C122.002 210.124 122.158 209.386 122.471 208.746C122.787 208.107 123.227 207.608 123.792 207.25C124.36 206.891 125.024 206.712 125.784 206.712C126.246 206.712 126.693 206.788 127.126 206.941C127.559 207.093 127.948 207.333 128.293 207.66C128.637 207.987 128.909 208.411 129.108 208.933C129.307 209.451 129.406 210.082 129.406 210.824V211.388H122.902V210.195H127.845C127.845 209.776 127.76 209.405 127.59 209.082C127.419 208.755 127.18 208.498 126.871 208.31C126.565 208.121 126.206 208.027 125.795 208.027C125.347 208.027 124.956 208.137 124.623 208.358C124.292 208.574 124.037 208.858 123.856 209.21C123.678 209.558 123.589 209.936 123.589 210.344V211.277C123.589 211.824 123.685 212.289 123.877 212.672C124.072 213.056 124.344 213.349 124.692 213.551C125.04 213.75 125.447 213.849 125.912 213.849C126.214 213.849 126.489 213.807 126.737 213.722C126.986 213.633 127.201 213.501 127.382 213.327C127.563 213.153 127.702 212.939 127.797 212.683L129.305 212.955C129.184 213.398 128.968 213.787 128.655 214.121C128.346 214.451 127.957 214.709 127.488 214.893C127.023 215.075 126.492 215.165 125.896 215.165ZM140.782 211.463H142.401L143.541 212.949L144.079 213.61L145.895 215.98H144.212L142.998 214.398L142.582 213.823L140.782 211.463ZM146.247 209.545C146.247 210.71 146.034 211.712 145.608 212.55C145.182 213.384 144.597 214.027 143.855 214.478C143.117 214.925 142.277 215.149 141.336 215.149C140.391 215.149 139.548 214.925 138.806 214.478C138.067 214.027 137.485 213.382 137.058 212.544C136.632 211.706 136.419 210.707 136.419 209.545C136.419 208.381 136.632 207.381 137.058 206.547C137.485 205.708 138.067 205.066 138.806 204.618C139.548 204.167 140.391 203.942 141.336 203.942C142.277 203.942 143.117 204.167 143.855 204.618C144.597 205.066 145.182 205.708 145.608 206.547C146.034 207.381 146.247 208.381 146.247 209.545ZM144.617 209.545C144.617 208.658 144.473 207.91 144.186 207.303C143.901 206.692 143.511 206.23 143.014 205.918C142.52 205.602 141.961 205.444 141.336 205.444C140.707 205.444 140.146 205.602 139.653 205.918C139.159 206.23 138.768 206.692 138.481 207.303C138.197 207.91 138.055 208.658 138.055 209.545C138.055 210.433 138.197 211.183 138.481 211.793C138.768 212.401 139.159 212.862 139.653 213.178C140.146 213.491 140.707 213.647 141.336 213.647C141.961 213.647 142.52 213.491 143.014 213.178C143.511 212.862 143.901 212.401 144.186 211.793C144.473 211.183 144.617 210.433 144.617 209.545ZM154.104 211.607V206.818H155.702V215H154.136V213.583H154.051C153.863 214.02 153.561 214.384 153.145 214.675C152.733 214.963 152.22 215.107 151.606 215.107C151.08 215.107 150.615 214.991 150.21 214.76C149.809 214.526 149.493 214.18 149.262 213.722C149.035 213.263 148.921 212.697 148.921 212.022V206.818H150.514V211.831C150.514 212.388 150.668 212.832 150.977 213.162C151.286 213.493 151.688 213.658 152.181 213.658C152.479 213.658 152.776 213.583 153.071 213.434C153.369 213.285 153.616 213.059 153.811 212.757C154.01 212.456 154.108 212.072 154.104 211.607ZM162.118 215.165C161.312 215.165 160.618 214.993 160.036 214.648C159.457 214.3 159.009 213.812 158.693 213.184C158.381 212.551 158.225 211.811 158.225 210.962C158.225 210.124 158.381 209.386 158.693 208.746C159.009 208.107 159.45 207.608 160.014 207.25C160.583 206.891 161.247 206.712 162.007 206.712C162.468 206.712 162.916 206.788 163.349 206.941C163.782 207.093 164.171 207.333 164.515 207.66C164.86 207.987 165.132 208.411 165.33 208.933C165.529 209.451 165.629 210.082 165.629 210.824V211.388H159.125V210.195H164.068C164.068 209.776 163.983 209.405 163.812 209.082C163.642 208.755 163.402 208.498 163.093 208.31C162.788 208.121 162.429 208.027 162.017 208.027C161.57 208.027 161.179 208.137 160.845 208.358C160.515 208.574 160.259 208.858 160.078 209.21C159.901 209.558 159.812 209.936 159.812 210.344V211.277C159.812 211.824 159.908 212.289 160.1 212.672C160.295 213.056 160.567 213.349 160.915 213.551C161.263 213.75 161.669 213.849 162.134 213.849C162.436 213.849 162.711 213.807 162.96 213.722C163.209 213.633 163.423 213.501 163.605 213.327C163.786 213.153 163.924 212.939 164.02 212.683L165.528 212.955C165.407 213.398 165.19 213.787 164.878 214.121C164.569 214.451 164.18 214.709 163.711 214.893C163.246 215.075 162.715 215.165 162.118 215.165ZM174.277 208.816L172.833 209.071C172.773 208.887 172.677 208.711 172.546 208.544C172.418 208.377 172.244 208.24 172.024 208.134C171.804 208.027 171.528 207.974 171.198 207.974C170.747 207.974 170.371 208.075 170.069 208.278C169.767 208.477 169.616 208.734 169.616 209.05C169.616 209.324 169.717 209.544 169.92 209.711C170.122 209.877 170.449 210.014 170.9 210.121L172.199 210.419C172.952 210.593 173.513 210.861 173.883 211.223C174.252 211.586 174.437 212.056 174.437 212.635C174.437 213.125 174.295 213.562 174.011 213.945C173.73 214.325 173.338 214.624 172.833 214.84C172.333 215.057 171.752 215.165 171.092 215.165C170.175 215.165 169.428 214.97 168.849 214.579C168.27 214.185 167.915 213.626 167.784 212.901L169.323 212.667C169.419 213.068 169.616 213.372 169.914 213.578C170.213 213.78 170.601 213.881 171.081 213.881C171.603 213.881 172.02 213.773 172.333 213.556C172.645 213.336 172.801 213.068 172.801 212.752C172.801 212.496 172.706 212.282 172.514 212.108C172.326 211.934 172.036 211.802 171.646 211.713L170.261 211.41C169.497 211.236 168.932 210.959 168.567 210.579C168.204 210.199 168.023 209.718 168.023 209.135C168.023 208.652 168.158 208.23 168.428 207.868C168.698 207.505 169.071 207.223 169.547 207.021C170.023 206.815 170.568 206.712 171.182 206.712C172.066 206.712 172.762 206.903 173.27 207.287C173.778 207.667 174.114 208.176 174.277 208.816ZM180.757 206.818V208.097H176.288V206.818H180.757ZM177.487 204.858H179.079V212.598C179.079 212.907 179.125 213.139 179.218 213.295C179.31 213.448 179.429 213.553 179.575 213.61C179.724 213.663 179.885 213.69 180.059 213.69C180.187 213.69 180.299 213.681 180.395 213.663C180.491 213.645 180.565 213.631 180.619 213.62L180.906 214.936C180.814 214.972 180.683 215.007 180.512 215.043C180.342 215.082 180.129 215.103 179.873 215.107C179.454 215.114 179.063 215.039 178.701 214.883C178.339 214.727 178.046 214.485 177.822 214.158C177.598 213.832 177.487 213.422 177.487 212.928V204.858ZM183.269 215V206.818H184.862V215H183.269ZM184.073 205.556C183.796 205.556 183.558 205.463 183.359 205.279C183.164 205.091 183.066 204.867 183.066 204.608C183.066 204.345 183.164 204.121 183.359 203.936C183.558 203.748 183.796 203.654 184.073 203.654C184.35 203.654 184.586 203.748 184.782 203.936C184.981 204.121 185.08 204.345 185.08 204.608C185.08 204.867 184.981 205.091 184.782 205.279C184.586 205.463 184.35 205.556 184.073 205.556ZM191.201 215.165C190.434 215.165 189.764 214.989 189.192 214.638C188.621 214.286 188.177 213.794 187.861 213.162C187.545 212.53 187.387 211.792 187.387 210.946C187.387 210.098 187.545 209.355 187.861 208.72C188.177 208.084 188.621 207.591 189.192 207.239C189.764 206.887 190.434 206.712 191.201 206.712C191.968 206.712 192.637 206.887 193.209 207.239C193.781 207.591 194.224 208.084 194.54 208.72C194.857 209.355 195.015 210.098 195.015 210.946C195.015 211.792 194.857 212.53 194.54 213.162C194.224 213.794 193.781 214.286 193.209 214.638C192.637 214.989 191.968 215.165 191.201 215.165ZM191.206 213.828C191.703 213.828 192.115 213.697 192.442 213.434C192.768 213.171 193.01 212.821 193.166 212.385C193.326 211.948 193.406 211.467 193.406 210.941C193.406 210.419 193.326 209.94 193.166 209.503C193.01 209.062 192.768 208.709 192.442 208.443C192.115 208.176 191.703 208.043 191.206 208.043C190.705 208.043 190.29 208.176 189.96 208.443C189.633 208.709 189.39 209.062 189.23 209.503C189.074 209.94 188.995 210.419 188.995 210.941C188.995 211.467 189.074 211.948 189.23 212.385C189.39 212.821 189.633 213.171 189.96 213.434C190.29 213.697 190.705 213.828 191.206 213.828ZM199.135 210.142V215H197.542V206.818H199.071V208.15H199.172C199.361 207.717 199.655 207.369 200.057 207.106C200.461 206.843 200.971 206.712 201.585 206.712C202.143 206.712 202.631 206.829 203.05 207.063C203.469 207.294 203.794 207.638 204.025 208.097C204.256 208.555 204.371 209.121 204.371 209.796V215H202.778V209.988C202.778 209.395 202.624 208.931 202.315 208.597C202.006 208.26 201.582 208.091 201.042 208.091C200.673 208.091 200.344 208.171 200.057 208.331C199.772 208.491 199.547 208.725 199.38 209.034C199.217 209.339 199.135 209.709 199.135 210.142Z" fill="#9747FF"/>
</g>
<defs>
<clipPath id="clip0_1334_2">
<rect width="256" height="256" fill="white"/>
</clipPath>
</defs>
</svg>
